<svg width="129.03332099679082" height="77.0333209967908" xmlns="http://www.w3.org/2000/svg"><style>.element {font-family: 'Courier New', Courier, monospace;font-size: 10px;fill: white;font-weight: bold;dominant-baseline: middle;text-anchor: middle;}.ligation {stroke-width: 1px;stroke: black;}.ci-H {fill: #bbbbbb;}.ci-S {fill: #f7cd29;}.ci-Cl {fill: #21d122;}.ci-F {fill: #aed482;}.ci-O {fill: #eb3738;}</style><circle class="circle-element ci-S" cx="64.5166604983954" cy="38.5166604983954" r="9" /><text class="element S" x="64.5166604983954" y="38.5166604983954">S</text><circle class="circle-element ci-O" cx="87.0333209967908" cy="51.5166604983954" r="9" /><text class="element O" x="87.0333209967908" y="51.5166604983954">O</text><circle class="circle-element ci-H" cx="113.0333209967908" cy="51.5166604983954" r="9" /><text class="element H" x="113.0333209967908" y="51.5166604983954">H</text><circle class="circle-element ci-O" cx="51.5166604983954" cy="61.033320996790806" r="9" /><text class="element O" x="51.5166604983954" y="61.033320996790806">O</text><circle class="circle-element ci-O" cx="41.99999999999999" cy="25.5166604983954" r="9" /><text class="element O" x="41.99999999999999" y="25.5166604983954">O</text><circle class="circle-element ci-H" cx="15.999999999999993" cy="25.516660498395403" r="9" /><text class="element H" x="15.999999999999993" y="25.516660498395403">H</text><circle class="circle-element ci-O" cx="77.5166604983954" cy="16.0" r="9" /><text class="element O" x="77.5166604983954" y="16.0">O</text><line class="ligation" x1="72.31088913245534" y1="43.0166604983954" x2="79.23909236273086" y2="47.0166604983954" /><line class="ligation" x1="96.0333209967908" y1="51.5166604983954" x2="104.0333209967908" y2="51.5166604983954" /><line class="ligation" x1="58.97570722046447" y1="45.6087572808559" x2="54.88811983913861" y2="52.68866630568972"/><line class="ligation" x1="61.14520115765219" y1="46.861315189496494" x2="57.05761377632633" y2="53.94122421433031"/><line class="ligation" x1="56.72243186433545" y1="34.0166604983954" x2="49.79422863405995" y2="30.016660498395392" /><line class="ligation" x1="32.99999999999999" y1="25.5166604983954" x2="24.999999999999993" y2="25.5166604983954" /><line class="ligation" x1="70.05761377632632" y1="31.42456371593491" x2="74.1452011576522" y2="24.34465469110109"/><line class="ligation" x1="67.8881198391386" y1="30.172005807294315" x2="71.97570722046447" y2="23.0920967824605"/></svg>