<svg width="136.0" height="77.03332099679082" xmlns="http://www.w3.org/2000/svg"><style>.element {font-family: 'Courier New', Courier, monospace;font-size: 10px;fill: black;font-weight: bold;dominant-baseline: middle;text-anchor: middle;}.ligation {stroke-width: 1px;stroke: black;}.element-H {fill: #bbbbbb;}.element-S {fill: #f7cd29;}.element-Cl {fill: #21d122;}.element-F {fill: #aed482;}.element-N {fill: #7878fa;}.element-O {fill: #eb3738;}.element-C {fill: #000000;}</style><text class="element element-N" x="81.00000000000001" y="38.5166604983954">N</text><text class="element element-O" x="68.0" y="16.000000000000004">O</text><text class="element element-O" x="68.00000000000001" y="61.033320996790806">O</text><text class="element element-O" x="107.00000000000001" y="38.5166604983954">O</text><text class="element element-H" x="120.00000000000001" y="16.0">H</text><text class="element element-Cl" x="55.000000000000014" y="38.5166604983954">Cl</text><text class="element element-Cl" x="42.0" y="16.000000000000007">Cl</text><text class="element element-Cl" x="42.00000000000002" y="61.03332099679081">Cl</text><text class="element element-H" x="29.000000000000014" y="38.51666049839541">H</text><text class="element element-H" x="16.0" y="16.00000000000001">H</text><text class="element element-H" x="16.000000000000014" y="61.03332099679082">H</text><line class="ligation" x1="78.49142435318291" y1="31.98159751291499" x2="72.40524273734886" y2="21.4400217301988"/><line class="ligation" x1="76.59475726265116" y1="33.0766387681966" x2="70.50857564681709" y2="22.535062985480415"/><line class="ligation" x1="76.59475726265116" y1="43.956682228594204" x2="70.5085756468171" y2="54.49825801131039"/><line class="ligation" x1="78.49142435318291" y1="45.05172348387582" x2="72.40524273734887" y2="55.59329926659201"/><line class="ligation" x1="88.00000000000001" y1="38.5166604983954" x2="100.00000000000001" y2="38.5166604983954"/><line class="ligation" x1="110.50000000000001" y1="32.45448267190433" x2="116.50000000000001" y2="22.062177826491073"/><line class="ligation" x1="48.000000000000014" y1="38.5166604983954" x2="36.000000000000014" y2="38.51666049839541"/><line class="ligation" x1="35.0" y1="16.000000000000007" x2="23.0" y2="16.00000000000001"/><line class="ligation" x1="35.00000000000002" y1="61.03332099679081" x2="23.000000000000014" y2="61.03332099679082"/></svg>