<svg width="167.0999629903724" height="90.03332099679083" xmlns="http://www.w3.org/2000/svg"><style>.element {font-family: 'Courier New', Courier, monospace;font-size: 10px;fill: white;font-weight: bold;dominant-baseline: middle;text-anchor: middle;}.ligation {stroke-width: 1px;stroke: black;}.ci-H {fill: #bbbbbb;}.ci-S {fill: #f7cd29;}.ci-Cl {fill: #21d122;}.ci-F {fill: #aed482;}.ci-O {fill: #eb3738;}.ci-C {fill: #000000;}</style><circle class="circle-element ci-Cl" cx="16" cy="51.51666049839544" r="7" /><text class="element Cl" x="16" y="51.51666049839544">Cl</text><circle class="circle-element ci-C" cx="38.516660498395396" cy="38.516660498395424" r="7" /><text class="element C" x="38.516660498395396" y="38.516660498395424">C</text><circle class="circle-element ci-H" cx="25.516660498395385" cy="16.00000000000003" r="7" /><text class="element H" x="25.516660498395385" y="16.00000000000003">H</text><circle class="circle-element ci-H" cx="51.516660498395396" cy="16.00000000000003" r="7" /><text class="element H" x="51.516660498395396" y="16.00000000000003">H</text><circle class="circle-element ci-C" cx="61.033320996790806" cy="51.516660498395424" r="7" /><text class="element C" x="61.033320996790806" y="51.516660498395424">C</text><circle class="circle-element ci-H" cx="48.03332099679081" cy="74.03332099679083" r="7" /><text class="element H" x="48.03332099679081" y="74.03332099679083">H</text><circle class="circle-element ci-H" cx="74.0333209967908" cy="74.03332099679082" r="7" /><text class="element H" x="74.0333209967908" y="74.03332099679082">H</text><circle class="circle-element ci-S" cx="83.5499814951862" cy="38.51666049839542" r="7" /><text class="element S" x="83.5499814951862" y="38.51666049839542">S</text><circle class="circle-element ci-C" cx="106.06664199358161" cy="51.51666049839541" r="7" /><text class="element C" x="106.06664199358161" y="51.51666049839541">C</text><circle class="circle-element ci-H" cx="93.06664199358161" cy="74.03332099679082" r="7" /><text class="element H" x="93.06664199358161" y="74.03332099679082">H</text><circle class="circle-element ci-H" cx="119.06664199358161" cy="74.03332099679082" r="7" /><text class="element H" x="119.06664199358161" y="74.03332099679082">H</text><circle class="circle-element ci-C" cx="128.583302491977" cy="38.5166604983954" r="7" /><text class="element C" x="128.583302491977" y="38.5166604983954">C</text><circle class="circle-element ci-H" cx="115.583302491977" cy="16.0" r="7" /><text class="element H" x="115.583302491977" y="16.0">H</text><circle class="circle-element ci-H" cx="141.583302491977" cy="16.0" r="7" /><text class="element H" x="141.583302491977" y="16.0">H</text><circle class="circle-element ci-Cl" cx="151.0999629903724" cy="51.5166604983954" r="7" /><text class="element Cl" x="151.0999629903724" y="51.5166604983954">Cl</text><line class="ligation" x1="22.06217782649107" y1="48.01666049839544" x2="32.45448267190432" y2="42.016660498395424" /><line class="ligation" x1="35.016660498395396" y1="32.45448267190436" x2="29.01666049839538" y2="22.0621778264911" /><line class="ligation" x1="42.016660498395396" y1="32.45448267190435" x2="48.0166604983954" y2="22.0621778264911" /><line class="ligation" x1="44.57883832488647" y1="42.016660498395424" x2="54.97114317029973" y2="48.016660498395424" /><line class="ligation" x1="57.533320996790806" y1="57.5788383248865" x2="51.53332099679081" y2="67.97114317029977" /><line class="ligation" x1="64.5333209967908" y1="57.5788383248865" x2="70.5333209967908" y2="67.97114317029975" /><line class="ligation" x1="67.09549882328187" y1="48.016660498395424" x2="77.48780366869514" y2="42.01666049839542" /><line class="ligation" x1="89.61215932167727" y1="42.01666049839542" x2="100.00446416709055" y2="48.01666049839541" /><line class="ligation" x1="102.56664199358161" y1="57.57883832488648" x2="96.56664199358161" y2="67.97114317029975" /><line class="ligation" x1="109.56664199358161" y1="57.57883832488648" x2="115.56664199358161" y2="67.97114317029975" /><line class="ligation" x1="112.12881982007268" y1="48.01666049839541" x2="122.52112466548594" y2="42.0166604983954" /><line class="ligation" x1="125.08330249197701" y1="32.45448267190433" x2="119.083302491977" y2="22.062177826491073" /><line class="ligation" x1="132.083302491977" y1="32.45448267190433" x2="138.083302491977" y2="22.062177826491073" /><line class="ligation" x1="134.6454803184681" y1="42.0166604983954" x2="145.03778516388132" y2="48.0166604983954" /></svg>