<svg width="328.82428427126445" height="112.00000000000006" xmlns="http://www.w3.org/2000/svg"><style>.element {font-family: 'Courier New', Courier, monospace;font-size: 10px;fill: black;font-weight: bold;dominant-baseline: middle;text-anchor: middle;}.ligation {stroke-width: 1px;stroke: black;}.element-H {fill: #bbbbbb;}.element-S {fill: #f7cd29;}.element-Cl {fill: #21d122;}.element-F {fill: #aed482;}.element-N {fill: #7878fa;}.element-O {fill: #eb3738;}.element-C {fill: #000000;}</style><text class="element element-C" x="87.65767928731049" y="36.000000000000064">C</text><text class="element element-H" x="87.65767928731049" y="16.000000000000064">H</text><text class="element element-C" x="104.97818736299926" y="46.000000000000064">C</text><text class="element element-C" x="122.29869543868803" y="36.00000000000006">C</text><text class="element element-H" x="112.29869543868801" y="18.679491924311282">H</text><text class="element element-H" x="132.29869543868801" y="18.679491924311282">H</text><text class="element element-N" x="139.6192035143768" y="46.00000000000005">N</text><text class="element element-H" x="139.6192035143768" y="66.00000000000006">H</text><text class="element element-C" x="156.93971159006557" y="36.00000000000004">C</text><text class="element element-O" x="156.93971159006557" y="16.000000000000043">O</text><text class="element element-C" x="174.26021966575433" y="46.00000000000004">C</text><text class="element element-H" x="164.26021966575433" y="63.320508075688814">H</text><text class="element element-H" x="184.26021966575433" y="63.320508075688814">H</text><text class="element element-C" x="191.58072774144313" y="36.00000000000003">C</text><text class="element element-H" x="181.5807277414431" y="18.67949192431126">H</text><text class="element element-H" x="201.58072774144313" y="18.67949192431126">H</text><text class="element element-C" x="208.9012358171319" y="46.00000000000003">C</text><text class="element element-H" x="198.9012358171319" y="63.32050807568881">H</text><text class="element element-H" x="218.9012358171319" y="63.3205080756888">H</text><text class="element element-C" x="226.22174389282065" y="36.00000000000002">C</text><text class="element element-H" x="216.22174389282065" y="18.67949192431125">H</text><text class="element element-H" x="236.22174389282065" y="18.67949192431125">H</text><text class="element element-C" x="243.54225196850942" y="46.00000000000002">C</text><text class="element element-H" x="243.54225196850942" y="66.00000000000003">H</text><text class="element element-C" x="260.8627600441982" y="36.000000000000014">C</text><text class="element element-H" x="260.8627600441982" y="16.00000000000001">H</text><text class="element element-C" x="278.183268119887" y="46.00000000000001">C</text><text class="element element-H" x="278.183268119887" y="26.000000000000007">H</text><text class="element element-C" x="295.5037761955757" y="36.0">C</text><text class="element element-H" x="312.82428427126445" y="25.999999999999993">H</text><text class="element element-H" x="312.82428427126445" y="46.0">H</text><text class="element element-H" x="295.5037761955757" y="16.0">H</text><text class="element element-C" x="278.183268119887" y="66.0">C</text><text class="element element-H" x="262.8623792575074" y="78.85575219373081">H</text><text class="element element-H" x="278.183268119887" y="86.0">H</text><text class="element element-H" x="293.5041569822665" y="78.8557521937308">H</text><text class="element element-C" x="104.97818736299926" y="66.00000000000006">C</text><text class="element element-H" x="122.29869543868804" y="76.00000000000006">H</text><text class="element element-C" x="87.65767928731049" y="76.00000000000006">C</text><text class="element element-H" x="87.65767928731049" y="96.00000000000006">H</text><text class="element element-C" x="70.33717121162172" y="66.00000000000006">C</text><text class="element element-O" x="53.016663135932944" y="76.00000000000006">O</text><text class="element element-H" x="53.016663135932944" y="96.00000000000006">H</text><text class="element element-C" x="70.33717121162171" y="46.000000000000064">C</text><text class="element element-O" x="53.016663135932944" y="36.000000000000064">O</text><text class="element element-C" x="35.696155060244166" y="46.00000000000006">C</text><text class="element element-H" x="28.855752193730794" y="64.79385241571823">H</text><text class="element element-H" x="18.375646984555388" y="56.00000000000006">H</text><text class="element element-H" x="16.0" y="42.52703644666145">H</text><line class="ligation" x1="87.65767928731049" y1="29.000000000000064" x2="87.65767928731049" y2="23.000000000000064" /><line class="ligation" x1="93.71985711380155" y1="39.500000000000064" x2="98.9160095365082" y2="42.500000000000064" /><line class="ligation" x1="111.04036518949033" y1="42.500000000000064" x2="116.23651761219696" y2="39.50000000000006" /><line class="ligation" x1="118.79869543868803" y1="29.937822173508987" x2="115.79869543868801" y2="24.74166975080235" /><line class="ligation" x1="125.79869543868803" y1="29.937822173508987" x2="128.79869543868801" y2="24.741669750802355" /><line class="ligation" x1="128.3608732651791" y1="39.50000000000006" x2="133.55702568788573" y2="42.50000000000005" /><line class="ligation" x1="139.6192035143768" y1="53.00000000000005" x2="139.6192035143768" y2="59.00000000000006" /><line class="ligation" x1="145.6813813408679" y1="42.50000000000005" x2="150.8775337635745" y2="39.50000000000004" /><line class="ligation" x1="158.03475284534719" y1="29.08618161583408" x2="158.03475284534719" y2="22.913818384166007"/><line class="ligation" x1="155.84467033478396" y1="29.08618161583408" x2="155.84467033478396" y2="22.913818384166007"/><line class="ligation" x1="163.00188941655665" y1="39.50000000000004" x2="168.19804183926325" y2="42.50000000000004" /><line class="ligation" x1="170.76021966575433" y1="52.062177826491116" x2="167.76021966575433" y2="57.25833024919774" /><line class="ligation" x1="177.76021966575433" y1="52.062177826491116" x2="180.76021966575433" y2="57.25833024919774" /><line class="ligation" x1="180.32239749224541" y1="42.50000000000004" x2="185.51854991495205" y2="39.50000000000003" /><line class="ligation" x1="188.08072774144313" y1="29.93782217350896" x2="185.0807277414431" y2="24.74166975080233" /><line class="ligation" x1="195.08072774144313" y1="29.93782217350896" x2="198.08072774144313" y2="24.741669750802334" /><line class="ligation" x1="197.6429055679342" y1="39.50000000000003" x2="202.8390579906408" y2="42.50000000000003" /><line class="ligation" x1="205.4012358171319" y1="52.0621778264911" x2="202.4012358171319" y2="57.25833024919773" /><line class="ligation" x1="212.4012358171319" y1="52.0621778264911" x2="215.4012358171319" y2="57.258330249197726" /><line class="ligation" x1="214.96341364362297" y1="42.50000000000003" x2="220.15956606632957" y2="39.50000000000002" /><line class="ligation" x1="222.72174389282065" y1="29.937822173508952" x2="219.72174389282065" y2="24.741669750802323" /><line class="ligation" x1="229.72174389282065" y1="29.937822173508952" x2="232.72174389282065" y2="24.741669750802323" /><line class="ligation" x1="232.28392171931173" y1="39.50000000000002" x2="237.48007414201834" y2="42.50000000000002" /><line class="ligation" x1="243.54225196850942" y1="53.00000000000002" x2="243.54225196850942" y2="59.00000000000003" /><line class="ligation" x1="250.07731495398983" y1="43.491424353182914" x2="255.4227383139994" y2="40.40524273734888"/><line class="ligation" x1="248.9822736987082" y1="41.59475726265116" x2="254.32769705871777" y2="38.50857564681712"/><line class="ligation" x1="260.8627600441982" y1="29.000000000000014" x2="260.8627600441982" y2="23.00000000000001" /><line class="ligation" x1="266.92493787068923" y1="39.500000000000014" x2="272.1210902933959" y2="42.50000000000001" /><line class="ligation" x1="278.183268119887" y1="39.00000000000001" x2="278.183268119887" y2="33.00000000000001" /><line class="ligation" x1="284.245445946378" y1="42.50000000000001" x2="289.44159836908466" y2="39.5" /><line class="ligation" x1="301.56595402206676" y1="32.5" x2="306.7621064447734" y2="29.499999999999993" /><line class="ligation" x1="301.56595402206676" y1="39.5" x2="306.7621064447734" y2="42.5" /><line class="ligation" x1="295.5037761955757" y1="29.0" x2="295.5037761955757" y2="23.0" /><line class="ligation" x1="278.183268119887" y1="53.00000000000001" x2="278.183268119887" y2="59.0" /><line class="ligation" x1="272.8209570180541" y1="70.49951326780578" x2="268.2246903593403" y2="74.35623892592503" /><line class="ligation" x1="278.183268119887" y1="73.0" x2="278.183268119887" y2="79.0" /><line class="ligation" x1="283.54557922171983" y1="70.49951326780578" x2="288.14184588043366" y2="74.35623892592503" /><line class="ligation" x1="103.88314610771765" y1="52.91381838416603" x2="103.88314610771765" y2="59.08618161583409"/><line class="ligation" x1="106.07322861828088" y1="52.91381838416603" x2="106.07322861828088" y2="59.08618161583409"/><line class="ligation" x1="111.04036518949033" y1="69.50000000000006" x2="116.23651761219698" y2="72.50000000000006" /><line class="ligation" x1="98.9160095365082" y1="69.50000000000006" x2="93.71985711380155" y2="72.50000000000006" /><line class="ligation" x1="87.65767928731049" y1="83.00000000000006" x2="87.65767928731049" y2="89.00000000000006" /><line class="ligation" x1="82.21765755711169" y1="71.5947572626512" x2="76.87223419710213" y2="68.50857564681715"/><line class="ligation" x1="81.12261630183008" y1="73.49142435318295" x2="75.77719294182052" y2="70.40524273734891"/><line class="ligation" x1="64.27499338513066" y1="69.50000000000006" x2="59.07884096242401" y2="72.50000000000006" /><line class="ligation" x1="53.016663135932944" y1="83.00000000000006" x2="53.016663135932944" y2="89.00000000000006" /><line class="ligation" x1="70.33717121162172" y1="59.00000000000006" x2="70.33717121162171" y2="53.000000000000064" /><line class="ligation" x1="64.27499338513064" y1="42.500000000000064" x2="59.07884096242402" y2="39.50000000000006" /><line class="ligation" x1="46.95448530944187" y1="39.500000000000064" x2="41.75833288673523" y2="42.50000000000006" /><line class="ligation" x1="33.30201405696449" y1="52.577848345501415" x2="31.249893197010472" y2="58.216004070216876" /><line class="ligation" x1="29.633977233753093" y1="49.50000000000006" x2="24.437824811046458" y2="52.50000000000006" /><line class="ligation" x1="28.80250078915871" y1="44.78446275633154" x2="22.893654271085456" y2="43.742573690329955" /><line class="ligation" x1="81.12261630183008" y1="38.508575646817164" x2="75.7771929418205" y2="41.5947572626512"/><line class="ligation" x1="82.21765755711169" y1="40.40524273734893" x2="76.87223419710212" y2="43.49142435318296"/></svg>