<svg width="417.87156955264385" height="136.00000000000006" xmlns="http://www.w3.org/2000/svg"><style>.element {font-family: 'Courier New', Courier, monospace;font-size: 10px;fill: white;font-weight: bold;dominant-baseline: middle;text-anchor: middle;}.ligation {stroke-width: 1px;stroke: black;}.ci-H {fill: #bbbbbb;}.ci-S {fill: #f7cd29;}.ci-Cl {fill: #21d122;}.ci-F {fill: #aed482;}.ci-O {fill: #eb3738;}</style><circle class="circle-element ci-C" cx="109.15498307350363" cy="42.00000000000007" r="9" /><text class="element C" x="109.15498307350363" y="42.00000000000007">C</text><circle class="circle-element ci-H" cx="109.15498307350363" cy="16.00000000000007" r="9" /><text class="element H" x="109.15498307350363" y="16.00000000000007">H</text><circle class="circle-element ci-C" cx="131.67164357189904" cy="55.00000000000007" r="9" /><text class="element C" x="131.67164357189904" y="55.00000000000007">C</text><circle class="circle-element ci-C" cx="154.18830407029444" cy="42.00000000000006" r="9" /><text class="element C" x="154.18830407029444" y="42.00000000000006">C</text><circle class="circle-element ci-H" cx="141.1883040702944" cy="19.48333950160466" r="9" /><text class="element H" x="141.1883040702944" y="19.48333950160466">H</text><circle class="circle-element ci-H" cx="167.18830407029444" cy="19.483339501604654" r="9" /><text class="element H" x="167.18830407029444" y="19.483339501604654">H</text><circle class="circle-element ci-N" cx="176.70496456868983" cy="55.00000000000006" r="9" /><text class="element N" x="176.70496456868983" y="55.00000000000006">N</text><circle class="circle-element ci-H" cx="176.70496456868983" cy="81.00000000000006" r="9" /><text class="element H" x="176.70496456868983" y="81.00000000000006">H</text><circle class="circle-element ci-C" cx="199.22162506708526" cy="42.00000000000004" r="9" /><text class="element C" x="199.22162506708526" y="42.00000000000004">C</text><circle class="circle-element ci-O" cx="199.22162506708526" cy="16.000000000000046" r="9" /><text class="element O" x="199.22162506708526" y="16.000000000000046">O</text><circle class="circle-element ci-C" cx="221.73828556548065" cy="55.00000000000004" r="9" /><text class="element C" x="221.73828556548065" y="55.00000000000004">C</text><circle class="circle-element ci-H" cx="208.73828556548065" cy="77.51666049839545" r="9" /><text class="element H" x="208.73828556548065" y="77.51666049839545">H</text><circle class="circle-element ci-H" cx="234.73828556548065" cy="77.51666049839545" r="9" /><text class="element H" x="234.73828556548065" y="77.51666049839545">H</text><circle class="circle-element ci-C" cx="244.25494606387605" cy="42.000000000000036" r="9" /><text class="element C" x="244.25494606387605" y="42.000000000000036">C</text><circle class="circle-element ci-H" cx="231.25494606387605" cy="19.483339501604632" r="9" /><text class="element H" x="231.25494606387605" y="19.483339501604632">H</text><circle class="circle-element ci-H" cx="257.25494606387605" cy="19.483339501604632" r="9" /><text class="element H" x="257.25494606387605" y="19.483339501604632">H</text><circle class="circle-element ci-C" cx="266.7716065622715" cy="55.00000000000003" r="9" /><text class="element C" x="266.7716065622715" y="55.00000000000003">C</text><circle class="circle-element ci-H" cx="253.77160656227147" cy="77.51666049839544" r="9" /><text class="element H" x="253.77160656227147" y="77.51666049839544">H</text><circle class="circle-element ci-H" cx="279.7716065622715" cy="77.51666049839544" r="9" /><text class="element H" x="279.7716065622715" y="77.51666049839544">H</text><circle class="circle-element ci-C" cx="289.28826706066684" cy="42.00000000000002" r="9" /><text class="element C" x="289.28826706066684" y="42.00000000000002">C</text><circle class="circle-element ci-H" cx="276.28826706066684" cy="19.483339501604622" r="9" /><text class="element H" x="276.28826706066684" y="19.483339501604622">H</text><circle class="circle-element ci-H" cx="302.28826706066684" cy="19.48333950160462" r="9" /><text class="element H" x="302.28826706066684" y="19.48333950160462">H</text><circle class="circle-element ci-C" cx="311.80492755906226" cy="55.00000000000002" r="9" /><text class="element C" x="311.80492755906226" y="55.00000000000002">C</text><circle class="circle-element ci-H" cx="311.80492755906226" cy="81.00000000000003" r="9" /><text class="element H" x="311.80492755906226" y="81.00000000000003">H</text><circle class="circle-element ci-C" cx="334.32158805745763" cy="42.00000000000001" r="9" /><text class="element C" x="334.32158805745763" y="42.00000000000001">C</text><circle class="circle-element ci-H" cx="334.32158805745763" cy="16.000000000000007" r="9" /><text class="element H" x="334.32158805745763" y="16.000000000000007">H</text><circle class="circle-element ci-C" cx="356.83824855585306" cy="55.00000000000001" r="9" /><text class="element C" x="356.83824855585306" y="55.00000000000001">C</text><circle class="circle-element ci-H" cx="356.83824855585306" cy="29.000000000000007" r="9" /><text class="element H" x="356.83824855585306" y="29.000000000000007">H</text><circle class="circle-element ci-C" cx="379.3549090542484" cy="42.0" r="9" /><text class="element C" x="379.3549090542484" y="42.0">C</text><circle class="circle-element ci-H" cx="401.87156955264385" cy="28.999999999999986" r="9" /><text class="element H" x="401.87156955264385" y="28.999999999999986">H</text><circle class="circle-element ci-H" cx="401.87156955264385" cy="54.99999999999999" r="9" /><text class="element H" x="401.87156955264385" y="54.99999999999999">H</text><circle class="circle-element ci-H" cx="379.3549090542484" cy="15.999999999999996" r="9" /><text class="element H" x="379.3549090542484" y="15.999999999999996">H</text><circle class="circle-element ci-C" cx="356.83824855585306" cy="81.0" r="9" /><text class="element C" x="356.83824855585306" y="81.0">C</text><circle class="circle-element ci-H" cx="336.9210930347596" cy="97.71247785185002" r="9" /><text class="element H" x="336.9210930347596" y="97.71247785185002">H</text><circle class="circle-element ci-H" cx="356.83824855585306" cy="107.00000000000001" r="9" /><text class="element H" x="356.83824855585306" y="107.00000000000001">H</text><circle class="circle-element ci-H" cx="376.75540407694643" cy="97.71247785185002" r="9" /><text class="element H" x="376.75540407694643" y="97.71247785185002">H</text><circle class="circle-element ci-C" cx="131.67164357189904" cy="81.00000000000007" r="9" /><text class="element C" x="131.67164357189904" y="81.00000000000007">C</text><circle class="circle-element ci-H" cx="154.18830407029444" cy="94.00000000000007" r="9" /><text class="element H" x="154.18830407029444" y="94.00000000000007">H</text><circle class="circle-element ci-C" cx="109.15498307350363" cy="94.00000000000007" r="9" /><text class="element C" x="109.15498307350363" y="94.00000000000007">C</text><circle class="circle-element ci-H" cx="109.15498307350363" cy="120.00000000000007" r="9" /><text class="element H" x="109.15498307350363" y="120.00000000000007">H</text><circle class="circle-element ci-C" cx="86.63832257510822" cy="81.00000000000007" r="9" /><text class="element C" x="86.63832257510822" y="81.00000000000007">C</text><circle class="circle-element ci-O" cx="64.12166207671282" cy="94.00000000000007" r="9" /><text class="element O" x="64.12166207671282" y="94.00000000000007">O</text><circle class="circle-element ci-H" cx="64.12166207671282" cy="120.00000000000007" r="9" /><text class="element H" x="64.12166207671282" y="120.00000000000007">H</text><circle class="circle-element ci-C" cx="86.63832257510822" cy="55.00000000000007" r="9" /><text class="element C" x="86.63832257510822" y="55.00000000000007">C</text><circle class="circle-element ci-O" cx="64.12166207671282" cy="42.00000000000007" r="9" /><text class="element O" x="64.12166207671282" y="42.00000000000007">O</text><circle class="circle-element ci-C" cx="41.60500157831741" cy="55.000000000000064" r="9" /><text class="element C" x="41.60500157831741" y="55.000000000000064">C</text><circle class="circle-element ci-H" cx="32.712477851850025" cy="79.43200814043368" r="9" /><text class="element H" x="32.712477851850025" y="79.43200814043368">H</text><circle class="circle-element ci-H" cx="19.088341079922003" cy="68.00000000000006" r="9" /><text class="element H" x="19.088341079922003" y="68.00000000000006">H</text><circle class="circle-element ci-H" cx="16.0" cy="50.485147380659875" r="9" /><text class="element H" x="16.0" y="50.485147380659875">H</text><line class="ligation" x1="109.15498307350363" y1="33.00000000000007" x2="109.15498307350363" y2="25.00000000000007" /><line class="ligation" x1="116.94921170756358" y1="46.50000000000007" x2="123.87741493783909" y2="50.50000000000007" /><line class="ligation" x1="139.465872205959" y1="50.50000000000007" x2="146.3940754362345" y2="46.50000000000006" /><line class="ligation" x1="149.68830407029444" y1="34.20577136594011" x2="145.6883040702944" y2="27.27756813566461" /><line class="ligation" x1="158.68830407029444" y1="34.20577136594011" x2="162.68830407029444" y2="27.277568135664605" /><line class="ligation" x1="161.98253270435438" y1="46.50000000000006" x2="168.91073593462988" y2="50.50000000000006" /><line class="ligation" x1="176.70496456868983" y1="64.00000000000006" x2="176.70496456868983" y2="72.00000000000006" /><line class="ligation" x1="184.49919320274978" y1="50.50000000000006" x2="191.4273964330253" y2="46.50000000000004" /><line class="ligation" x1="200.47418297572585" y1="33.08758738132591" x2="200.47418297572585" y2="24.912412618674182"/><line class="ligation" x1="197.96906715844466" y1="33.08758738132591" x2="197.9690671584447" y2="24.912412618674182"/><line class="ligation" x1="207.0158537011452" y1="46.50000000000004" x2="213.9440569314207" y2="50.50000000000004" /><line class="ligation" x1="217.23828556548065" y1="62.79422863405999" x2="213.23828556548065" y2="69.7224318643355" /><line class="ligation" x1="226.23828556548065" y1="62.79422863405999" x2="230.23828556548065" y2="69.7224318643355" /><line class="ligation" x1="229.5325141995406" y1="50.50000000000004" x2="236.4607174298161" y2="46.500000000000036" /><line class="ligation" x1="239.75494606387605" y1="34.20577136594009" x2="235.75494606387605" y2="27.27756813566458" /><line class="ligation" x1="248.75494606387605" y1="34.20577136594009" x2="252.75494606387605" y2="27.277568135664584" /><line class="ligation" x1="252.049174697936" y1="46.500000000000036" x2="258.9773779282115" y2="50.50000000000003" /><line class="ligation" x1="262.2716065622715" y1="62.79422863405998" x2="258.2716065622715" y2="69.72243186433549" /><line class="ligation" x1="271.2716065622715" y1="62.79422863405998" x2="275.2716065622715" y2="69.72243186433549" /><line class="ligation" x1="274.5658351963314" y1="50.50000000000003" x2="281.4940384266069" y2="46.50000000000002" /><line class="ligation" x1="284.78826706066684" y1="34.20577136594007" x2="280.78826706066684" y2="27.277568135664573" /><line class="ligation" x1="293.78826706066684" y1="34.20577136594007" x2="297.78826706066684" y2="27.27756813566457" /><line class="ligation" x1="297.0824956947268" y1="46.50000000000002" x2="304.0106989250023" y2="50.50000000000002" /><line class="ligation" x1="311.80492755906226" y1="64.00000000000003" x2="311.80492755906226" y2="72.00000000000003" /><line class="ligation" x1="320.14958225016335" y1="51.628540659256814" x2="327.22949127499714" y2="47.54095327793093"/><line class="ligation" x1="318.89702434152275" y1="49.45904672206909" x2="325.97693336635655" y2="45.37145934074323"/><line class="ligation" x1="334.32158805745763" y1="33.00000000000001" x2="334.32158805745763" y2="25.000000000000007" /><line class="ligation" x1="342.1158166915176" y1="46.50000000000001" x2="349.0440199217931" y2="50.50000000000001" /><line class="ligation" x1="356.83824855585306" y1="46.00000000000001" x2="356.83824855585306" y2="38.00000000000001" /><line class="ligation" x1="364.632477189913" y1="50.5" x2="371.5606804201885" y2="46.5" /><line class="ligation" x1="387.1491376883084" y1="37.5" x2="394.0773409185839" y2="33.499999999999986" /><line class="ligation" x1="387.1491376883084" y1="46.5" x2="394.0773409185839" y2="50.49999999999999" /><line class="ligation" x1="379.3549090542484" y1="33.0" x2="379.3549090542484" y2="24.999999999999996" /><line class="ligation" x1="356.83824855585306" y1="64.0" x2="356.83824855585306" y2="72.0" /><line class="ligation" x1="349.94384856778225" y1="86.78508848717885" x2="343.8154930228304" y2="91.92738936467117" /><line class="ligation" x1="356.83824855585306" y1="90.0" x2="356.83824855585306" y2="98.00000000000001" /><line class="ligation" x1="363.73264854392386" y1="86.78508848717885" x2="369.86100408887563" y2="91.92738936467117" /><line class="ligation" x1="130.41908566325844" y1="63.9124126186742" x2="130.41908566325844" y2="72.08758738132593"/><line class="ligation" x1="132.92420148053964" y1="63.9124126186742" x2="132.92420148053964" y2="72.08758738132593"/><line class="ligation" x1="139.465872205959" y1="85.50000000000007" x2="146.3940754362345" y2="89.50000000000007" /><line class="ligation" x1="123.87741493783909" y1="85.50000000000007" x2="116.94921170756358" y2="89.50000000000007" /><line class="ligation" x1="109.15498307350363" y1="103.00000000000007" x2="109.15498307350363" y2="111.00000000000007" /><line class="ligation" x1="102.06288629104313" y1="88.45904672206915" x2="94.9829772662093" y2="84.37145934074327"/><line class="ligation" x1="100.81032838240255" y1="90.62854065925686" x2="93.73041935756872" y2="86.540953277931"/><line class="ligation" x1="78.84409394104827" y1="85.50000000000007" x2="71.91589071077277" y2="89.50000000000007" /><line class="ligation" x1="64.12166207671282" y1="103.00000000000007" x2="64.12166207671282" y2="111.00000000000007" /><line class="ligation" x1="86.63832257510822" y1="72.00000000000007" x2="86.63832257510822" y2="64.00000000000007" /><line class="ligation" x1="78.84409394104827" y1="50.50000000000007" x2="71.91589071077277" y2="46.500000000000064" /><line class="ligation" x1="56.327433442652875" y1="46.50000000000007" x2="49.39923021237736" y2="50.50000000000006" /><line class="ligation" x1="38.526820288386396" y1="63.45723358707324" x2="35.790659141781035" y2="70.9747745533605" /><line class="ligation" x1="33.810772944257465" y1="59.500000000000064" x2="26.882569713981948" y2="63.50000000000006" /><line class="ligation" x1="32.74173180120754" y1="53.43716640099769" x2="24.863269777109874" y2="52.04798097966224" /><line class="ligation" x1="100.81032838240255" y1="45.37145934074328" x2="93.7304193575687" y2="49.45904672206914"/><line class="ligation" x1="102.06288629104313" y1="47.540953277930996" x2="94.9829772662093" y2="51.628540659256856"/></svg>