<svg width="328.82428427126445" height="112.00000000000006" xmlns="http://www.w3.org/2000/svg"><style>.element {font-family: 'Courier New', Courier, monospace;font-size: 10px;fill: black;font-weight: bold;dominant-baseline: middle;text-anchor: middle;}.ligation {stroke-width: 1px;stroke: black;}.element-H {fill: #bbbbbb;}.element-S {fill: #f7cd29;}.element-Cl {fill: #21d122;}.element-F {fill: #aed482;}.element-N {fill: #7878fa;}.element-O {fill: #eb3738;}.element-C {fill: #000000;}</style><text class="element element-N" x="139.6192035143768" y="46.00000000000005">N</text><text class="element element-H" x="139.6192035143768" y="66.00000000000006">H</text><text class="element element-O" x="156.93971159006557" y="16.000000000000043">O</text><text class="element element-O" x="53.016663135932944" y="76.00000000000006">O</text><text class="element element-H" x="53.016663135932944" y="96.00000000000006">H</text><text class="element element-O" x="53.016663135932944" y="36.000000000000064">O</text><line class="ligation" x1="87.65767928731049" y1="36.000000000000064" x2="104.97818736299926" y2="46.000000000000064" /><line class="ligation" x1="104.97818736299926" y1="46.000000000000064" x2="122.29869543868803" y2="36.00000000000006" /><line class="ligation" x1="122.29869543868803" y1="36.00000000000006" x2="133.55702568788573" y2="42.50000000000005" /><line class="ligation" x1="139.6192035143768" y1="53.00000000000005" x2="139.6192035143768" y2="59.00000000000006" /><line class="ligation" x1="145.6813813408679" y1="42.50000000000005" x2="156.93971159006557" y2="36.00000000000004" /><line class="ligation" x1="157.93971159006557" y1="36.00000000000004" x2="158.03475284534719" y2="22.913818384166007"/><line class="ligation" x1="155.93971159006557" y1="36.00000000000004" x2="155.84467033478396" y2="22.913818384166007"/><line class="ligation" x1="156.93971159006557" y1="36.00000000000004" x2="174.26021966575433" y2="46.00000000000004" /><line class="ligation" x1="174.26021966575433" y1="46.00000000000004" x2="191.58072774144313" y2="36.00000000000003" /><line class="ligation" x1="191.58072774144313" y1="36.00000000000003" x2="208.9012358171319" y2="46.00000000000003" /><line class="ligation" x1="208.9012358171319" y1="46.00000000000003" x2="226.22174389282065" y2="36.00000000000002" /><line class="ligation" x1="226.22174389282065" y1="36.00000000000002" x2="243.54225196850942" y2="46.00000000000002" /><line class="ligation" x1="244.04225196850942" y1="46.86602540378446" x2="261.3627600441982" y2="36.866025403784455"/><line class="ligation" x1="243.04225196850942" y1="45.13397459621558" x2="260.3627600441982" y2="35.13397459621557"/><line class="ligation" x1="260.8627600441982" y1="36.000000000000014" x2="278.183268119887" y2="46.00000000000001" /><line class="ligation" x1="278.183268119887" y1="46.00000000000001" x2="295.5037761955757" y2="36.0" /><line class="ligation" x1="278.183268119887" y1="46.00000000000001" x2="278.183268119887" y2="66.0" /><line class="ligation" x1="103.97818736299926" y1="46.000000000000064" x2="103.97818736299926" y2="66.00000000000006"/><line class="ligation" x1="105.97818736299926" y1="46.000000000000064" x2="105.97818736299926" y2="66.00000000000006"/><line class="ligation" x1="104.97818736299926" y1="66.00000000000006" x2="87.65767928731049" y2="76.00000000000006" /><line class="ligation" x1="88.15767928731049" y1="75.13397459621562" x2="70.83717121162172" y2="65.13397459621562"/><line class="ligation" x1="87.15767928731049" y1="76.86602540378449" x2="69.83717121162172" y2="66.86602540378449"/><line class="ligation" x1="70.33717121162172" y1="66.00000000000006" x2="59.07884096242401" y2="72.50000000000006" /><line class="ligation" x1="53.016663135932944" y1="83.00000000000006" x2="53.016663135932944" y2="89.00000000000006" /><line class="ligation" x1="70.33717121162172" y1="66.00000000000006" x2="70.33717121162171" y2="46.000000000000064" /><line class="ligation" x1="70.33717121162171" y1="46.000000000000064" x2="59.07884096242402" y2="39.50000000000006" /><line class="ligation" x1="46.95448530944187" y1="39.500000000000064" x2="35.696155060244166" y2="46.00000000000006" /><line class="ligation" x1="87.15767928731049" y1="35.13397459621562" x2="69.83717121162171" y2="45.13397459621562"/><line class="ligation" x1="88.15767928731049" y1="36.866025403784505" x2="70.83717121162171" y2="46.866025403784505"/></svg>