<svg width="328.82428427126445" height="112.00000000000006" xmlns="http://www.w3.org/2000/svg"><style>.element {font-family: 'Courier New', Courier, monospace;font-size: 10px;fill: black;font-weight: bold;dominant-baseline: middle;text-anchor: middle;}.ligation {stroke-width: 1px;stroke: black;}.element-H {fill: #bbbbbb;}.element-S {fill: #f7cd29;}.element-Cl {fill: #21d122;}.element-F {fill: #aed482;}.element-N {fill: #7878fa;}.element-O {fill: #eb3738;}.element-C {fill: #000000;}</style><text class="element element-C" x="87.65767928731049" y="36.000000000000064">C</text><text class="element element-H" x="87.65767928731049" y="16.000000000000064">H</text><text class="element element-C" x="104.97818736299926" y="46.000000000000064">C</text><text class="element element-C" x="122.29869543868803" y="36.00000000000006">C</text><text class="element element-H" x="112.29869543868801" y="18.679491924311282">H</text><text class="element element-H" x="132.29869543868801" y="18.679491924311282">H</text><text class="element element-N" x="139.6192035143768" y="46.00000000000005">N</text><text class="element element-H" x="139.6192035143768" y="66.00000000000006">H</text><text class="element element-C" x="156.93971159006557" y="36.00000000000004">C</text><text class="element element-O" x="156.93971159006557" y="16.000000000000043">O</text><text class="element element-C" x="174.26021966575433" y="46.00000000000004">C</text><text class="element element-H" x="164.26021966575433" y="63.320508075688814">H</text><text class="element element-H" x="184.26021966575433" y="63.320508075688814">H</text><text class="element element-C" x="191.58072774144313" y="36.00000000000003">C</text><text class="element element-H" x="181.5807277414431" y="18.67949192431126">H</text><text class="element element-H" x="201.58072774144313" y="18.67949192431126">H</text><text class="element element-C" x="208.9012358171319" y="46.00000000000003">C</text><text class="element element-H" x="198.9012358171319" y="63.32050807568881">H</text><text class="element element-H" x="218.9012358171319" y="63.3205080756888">H</text><text class="element element-C" x="226.22174389282065" y="36.00000000000002">C</text><text class="element element-H" x="216.22174389282065" y="18.67949192431125">H</text><text class="element element-H" x="236.22174389282065" y="18.67949192431125">H</text><text class="element element-C" x="243.54225196850942" y="46.00000000000002">C</text><text class="element element-H" x="243.54225196850942" y="66.00000000000003">H</text><text class="element element-C" x="260.8627600441982" y="36.000000000000014">C</text><text class="element element-H" x="260.8627600441982" y="16.00000000000001">H</text><text class="element element-C" x="278.183268119887" y="46.00000000000001">C</text><text class="element element-H" x="278.183268119887" y="26.000000000000007">H</text><text class="element element-C" x="295.5037761955757" y="36.0">C</text><text class="element element-H" x="312.82428427126445" y="25.999999999999993">H</text><text class="element element-H" x="312.82428427126445" y="46.0">H</text><text class="element element-H" x="295.5037761955757" y="16.0">H</text><text class="element element-C" x="278.183268119887" y="66.0">C</text><text class="element element-H" x="262.8623792575074" y="78.85575219373081">H</text><text class="element element-H" x="278.183268119887" y="86.0">H</text><text class="element element-H" x="293.5041569822665" y="78.8557521937308">H</text><text class="element element-C" x="104.97818736299926" y="66.00000000000006">C</text><text class="element element-H" x="122.29869543868804" y="76.00000000000006">H</text><text class="element element-C" x="87.65767928731049" y="76.00000000000006">C</text><text class="element element-H" x="87.65767928731049" y="96.00000000000006">H</text><text class="element element-C" x="70.33717121162172" y="66.00000000000006">C</text><text class="element element-O" x="53.016663135932944" y="76.00000000000006">O</text><text class="element element-H" x="53.016663135932944" y="96.00000000000006">H</text><text class="element element-C" x="70.33717121162171" y="46.000000000000064">C</text><text class="element element-O" x="53.016663135932944" y="36.000000000000064">O</text><text class="element element-C" x="35.696155060244166" y="46.00000000000006">C</text><text class="element element-H" x="28.855752193730794" y="64.79385241571823">H</text><text class="element element-H" x="18.375646984555388" y="56.00000000000006">H</text><text class="element element-H" x="16.0" y="42.52703644666145">H</text><circle class="ci-eletron" cx="87.65767928731049" cy="29.000000000000064" r="0.5" /><circle class="ci-eletron" cx="87.65767928731049" cy="23.000000000000064" r="0.5" /><circle class="ci-eletron" cx="93.71985711380155" cy="39.500000000000064" r="0.5" /><circle class="ci-eletron" cx="98.9160095365082" cy="42.500000000000064" r="0.5" /><circle class="ci-eletron" cx="111.04036518949033" cy="42.500000000000064" r="0.5" /><circle class="ci-eletron" cx="116.23651761219696" cy="39.50000000000006" r="0.5" /><circle class="ci-eletron" cx="118.79869543868803" cy="29.937822173508987" r="0.5" /><circle class="ci-eletron" cx="115.79869543868801" cy="24.74166975080235" r="0.5" /><circle class="ci-eletron" cx="125.79869543868803" cy="29.937822173508987" r="0.5" /><circle class="ci-eletron" cx="128.79869543868801" cy="24.741669750802355" r="0.5" /><circle class="ci-eletron" cx="128.3608732651791" cy="39.50000000000006" r="0.5" /><circle class="ci-eletron" cx="133.55702568788573" cy="42.50000000000005" r="0.5" /><circle class="ci-eletron" cx="139.6192035143768" cy="53.00000000000005" r="0.5" /><circle class="ci-eletron" cx="139.6192035143768" cy="59.00000000000006" r="0.5" /><circle class="ci-eletron" cx="145.6813813408679" cy="42.50000000000005" r="0.5" /><circle class="ci-eletron" cx="150.8775337635745" cy="39.50000000000004" r="0.5" /><circle class="ci-eletron" cx="158.03475284534719" cy="29.08618161583408" r="0.5" /><circle class="ci-eletron" cx="158.03475284534719" cy="22.913818384166007" r="0.5" /><circle class="ci-eletron" cx="155.84467033478396" cy="29.08618161583408" r="0.5" /><circle class="ci-eletron" cx="155.84467033478396" cy="22.913818384166007" r="0.5" /><circle class="ci-eletron" cx="163.00188941655665" cy="39.50000000000004" r="0.5" /><circle class="ci-eletron" cx="168.19804183926325" cy="42.50000000000004" r="0.5" /><circle class="ci-eletron" cx="170.76021966575433" cy="52.062177826491116" r="0.5" /><circle class="ci-eletron" cx="167.76021966575433" cy="57.25833024919774" r="0.5" /><circle class="ci-eletron" cx="177.76021966575433" cy="52.062177826491116" r="0.5" /><circle class="ci-eletron" cx="180.76021966575433" cy="57.25833024919774" r="0.5" /><circle class="ci-eletron" cx="180.32239749224541" cy="42.50000000000004" r="0.5" /><circle class="ci-eletron" cx="185.51854991495205" cy="39.50000000000003" r="0.5" /><circle class="ci-eletron" cx="188.08072774144313" cy="29.93782217350896" r="0.5" /><circle class="ci-eletron" cx="185.0807277414431" cy="24.74166975080233" r="0.5" /><circle class="ci-eletron" cx="195.08072774144313" cy="29.93782217350896" r="0.5" /><circle class="ci-eletron" cx="198.08072774144313" cy="24.741669750802334" r="0.5" /><circle class="ci-eletron" cx="197.6429055679342" cy="39.50000000000003" r="0.5" /><circle class="ci-eletron" cx="202.8390579906408" cy="42.50000000000003" r="0.5" /><circle class="ci-eletron" cx="205.4012358171319" cy="52.0621778264911" r="0.5" /><circle class="ci-eletron" cx="202.4012358171319" cy="57.25833024919773" r="0.5" /><circle class="ci-eletron" cx="212.4012358171319" cy="52.0621778264911" r="0.5" /><circle class="ci-eletron" cx="215.4012358171319" cy="57.258330249197726" r="0.5" /><circle class="ci-eletron" cx="214.96341364362297" cy="42.50000000000003" r="0.5" /><circle class="ci-eletron" cx="220.15956606632957" cy="39.50000000000002" r="0.5" /><circle class="ci-eletron" cx="222.72174389282065" cy="29.937822173508952" r="0.5" /><circle class="ci-eletron" cx="219.72174389282065" cy="24.741669750802323" r="0.5" /><circle class="ci-eletron" cx="229.72174389282065" cy="29.937822173508952" r="0.5" /><circle class="ci-eletron" cx="232.72174389282065" cy="24.741669750802323" r="0.5" /><circle class="ci-eletron" cx="232.28392171931173" cy="39.50000000000002" r="0.5" /><circle class="ci-eletron" cx="237.48007414201834" cy="42.50000000000002" r="0.5" /><circle class="ci-eletron" cx="243.54225196850942" cy="53.00000000000002" r="0.5" /><circle class="ci-eletron" cx="243.54225196850942" cy="59.00000000000003" r="0.5" /><circle class="ci-eletron" cx="250.07731495398983" cy="43.491424353182914" r="0.5" /><circle class="ci-eletron" cx="255.4227383139994" cy="40.40524273734888" r="0.5" /><circle class="ci-eletron" cx="248.9822736987082" cy="41.59475726265116" r="0.5" /><circle class="ci-eletron" cx="254.32769705871777" cy="38.50857564681712" r="0.5" /><circle class="ci-eletron" cx="260.8627600441982" cy="29.000000000000014" r="0.5" /><circle class="ci-eletron" cx="260.8627600441982" cy="23.00000000000001" r="0.5" /><circle class="ci-eletron" cx="266.92493787068923" cy="39.500000000000014" r="0.5" /><circle class="ci-eletron" cx="272.1210902933959" cy="42.50000000000001" r="0.5" /><circle class="ci-eletron" cx="278.183268119887" cy="39.00000000000001" r="0.5" /><circle class="ci-eletron" cx="278.183268119887" cy="33.00000000000001" r="0.5" /><circle class="ci-eletron" cx="284.245445946378" cy="42.50000000000001" r="0.5" /><circle class="ci-eletron" cx="289.44159836908466" cy="39.5" r="0.5" /><circle class="ci-eletron" cx="301.56595402206676" cy="32.5" r="0.5" /><circle class="ci-eletron" cx="306.7621064447734" cy="29.499999999999993" r="0.5" /><circle class="ci-eletron" cx="301.56595402206676" cy="39.5" r="0.5" /><circle class="ci-eletron" cx="306.7621064447734" cy="42.5" r="0.5" /><circle class="ci-eletron" cx="295.5037761955757" cy="29.0" r="0.5" /><circle class="ci-eletron" cx="295.5037761955757" cy="23.0" r="0.5" /><circle class="ci-eletron" cx="278.183268119887" cy="53.00000000000001" r="0.5" /><circle class="ci-eletron" cx="278.183268119887" cy="59.0" r="0.5" /><circle class="ci-eletron" cx="272.8209570180541" cy="70.49951326780578" r="0.5" /><circle class="ci-eletron" cx="268.2246903593403" cy="74.35623892592503" r="0.5" /><circle class="ci-eletron" cx="278.183268119887" cy="73.0" r="0.5" /><circle class="ci-eletron" cx="278.183268119887" cy="79.0" r="0.5" /><circle class="ci-eletron" cx="283.54557922171983" cy="70.49951326780578" r="0.5" /><circle class="ci-eletron" cx="288.14184588043366" cy="74.35623892592503" r="0.5" /><circle class="ci-eletron" cx="103.88314610771765" cy="52.91381838416603" r="0.5" /><circle class="ci-eletron" cx="103.88314610771765" cy="59.08618161583409" r="0.5" /><circle class="ci-eletron" cx="106.07322861828088" cy="52.91381838416603" r="0.5" /><circle class="ci-eletron" cx="106.07322861828088" cy="59.08618161583409" r="0.5" /><circle class="ci-eletron" cx="111.04036518949033" cy="69.50000000000006" r="0.5" /><circle class="ci-eletron" cx="116.23651761219698" cy="72.50000000000006" r="0.5" /><circle class="ci-eletron" cx="98.9160095365082" cy="69.50000000000006" r="0.5" /><circle class="ci-eletron" cx="93.71985711380155" cy="72.50000000000006" r="0.5" /><circle class="ci-eletron" cx="87.65767928731049" cy="83.00000000000006" r="0.5" /><circle class="ci-eletron" cx="87.65767928731049" cy="89.00000000000006" r="0.5" /><circle class="ci-eletron" cx="82.21765755711169" cy="71.5947572626512" r="0.5" /><circle class="ci-eletron" cx="76.87223419710213" cy="68.50857564681715" r="0.5" /><circle class="ci-eletron" cx="81.12261630183008" cy="73.49142435318295" r="0.5" /><circle class="ci-eletron" cx="75.77719294182052" cy="70.40524273734891" r="0.5" /><circle class="ci-eletron" cx="64.27499338513066" cy="69.50000000000006" r="0.5" /><circle class="ci-eletron" cx="59.07884096242401" cy="72.50000000000006" r="0.5" /><circle class="ci-eletron" cx="53.016663135932944" cy="83.00000000000006" r="0.5" /><circle class="ci-eletron" cx="53.016663135932944" cy="89.00000000000006" r="0.5" /><circle class="ci-eletron" cx="70.33717121162172" cy="59.00000000000006" r="0.5" /><circle class="ci-eletron" cx="70.33717121162171" cy="53.000000000000064" r="0.5" /><circle class="ci-eletron" cx="64.27499338513064" cy="42.500000000000064" r="0.5" /><circle class="ci-eletron" cx="59.07884096242402" cy="39.50000000000006" r="0.5" /><circle class="ci-eletron" cx="46.95448530944187" cy="39.500000000000064" r="0.5" /><circle class="ci-eletron" cx="41.75833288673523" cy="42.50000000000006" r="0.5" /><circle class="ci-eletron" cx="33.30201405696449" cy="52.577848345501415" r="0.5" /><circle class="ci-eletron" cx="31.249893197010472" cy="58.216004070216876" r="0.5" /><circle class="ci-eletron" cx="29.633977233753093" cy="49.50000000000006" r="0.5" /><circle class="ci-eletron" cx="24.437824811046458" cy="52.50000000000006" r="0.5" /><circle class="ci-eletron" cx="28.80250078915871" cy="44.78446275633154" r="0.5" /><circle class="ci-eletron" cx="22.893654271085456" cy="43.742573690329955" r="0.5" /><circle class="ci-eletron" cx="81.12261630183008" cy="38.508575646817164" r="0.5" /><circle class="ci-eletron" cx="75.7771929418205" cy="41.5947572626512" r="0.5" /><circle class="ci-eletron" cx="82.21765755711169" cy="40.40524273734893" r="0.5" /><circle class="ci-eletron" cx="76.87223419710212" cy="43.49142435318296" r="0.5" /></svg>