<svg width="212.13328398716322" height="136.0" xmlns="http://www.w3.org/2000/svg"><style>.element {font-family: 'Courier New', Courier, monospace;font-size: 10px;fill: black;font-weight: bold;dominant-baseline: middle;text-anchor: middle;}.ligation {stroke-width: 1px;stroke: black;}.element-H {fill: #bbbbbb;}.element-S {fill: #f7cd29;}.element-Cl {fill: #21d122;}.element-F {fill: #aed482;}.element-N {fill: #7878fa;}.element-O {fill: #eb3738;}.element-C {fill: #000000;}</style><text class="element element-O" x="106.06664199358161" y="55.0">O</text><text class="element element-N" x="83.5499814951862" y="42.0">N</text><text class="element element-O" x="83.5499814951862" y="16.0">O</text><text class="element element-O" x="61.0333209967908" y="55.0">O</text><text class="element element-O" x="61.033320996790806" y="81.0">O</text><text class="element element-N" x="38.516660498395396" y="94.0">N</text><text class="element element-O" x="16.0" y="80.99999999999999">O</text><text class="element element-O" x="38.516660498395396" y="120.0">O</text><text class="element element-O" x="151.09996299037243" y="80.99999999999999">O</text><text class="element element-N" x="173.61662348876783" y="93.99999999999999">N</text><text class="element element-O" x="173.61662348876783" y="119.99999999999999">O</text><text class="element element-O" x="196.13328398716322" y="80.99999999999997">O</text><line class="ligation" x1="106.06664199358161" y1="81.0" x2="106.06664199358161" y2="62.0" /><line class="ligation" x1="106.06664199358161" y1="81.0" x2="83.5499814951862" y2="94.0" /><line class="ligation" x1="106.06664199358161" y1="81.0" x2="128.583302491977" y2="94.0" /><line class="ligation" x1="100.00446416709055" y1="51.5" x2="89.61215932167727" y2="45.49999999999999" /><line class="ligation" x1="83.5499814951862" y1="35.0" x2="83.5499814951862" y2="23.0" /><line class="ligation" x1="77.48780366869514" y1="45.5" x2="67.09549882328187" y2="51.5" /><line class="ligation" x1="83.5499814951862" y1="94.0" x2="67.09549882328187" y2="84.5" /><line class="ligation" x1="54.97114317029973" y1="84.5" x2="44.57883832488646" y2="90.5" /><line class="ligation" x1="32.45448267190432" y1="90.5" x2="22.062177826491073" y2="84.49999999999999" /><line class="ligation" x1="38.516660498395396" y1="101.0" x2="38.516660498395396" y2="113.0" /><line class="ligation" x1="128.583302491977" y1="94.0" x2="145.03778516388135" y2="84.49999999999999" /><line class="ligation" x1="157.1621408168635" y1="84.49999999999999" x2="167.55444566227675" y2="90.49999999999999" /><line class="ligation" x1="173.61662348876783" y1="100.99999999999999" x2="173.61662348876783" y2="112.99999999999999" /><line class="ligation" x1="179.6788013152589" y1="90.49999999999999" x2="190.07110616067214" y2="84.49999999999997" /></svg>