<svg width="170.56406460551017" height="112.0" xmlns="http://www.w3.org/2000/svg"><style>.element {font-family: 'Courier New', Courier, monospace;font-size: 10px;fill: black;font-weight: bold;dominant-baseline: middle;text-anchor: middle;}.ligation {stroke-width: 1px;stroke: black;}.element-H {fill: #bbbbbb;}.element-S {fill: #f7cd29;}.element-Cl {fill: #21d122;}.element-F {fill: #aed482;}.element-N {fill: #7878fa;}.element-O {fill: #eb3738;}.element-C {fill: #000000;}</style><text class="element element-C" x="85.28203230275508" y="66.0">C</text><text class="element element-H" x="85.28203230275508" y="86.0">H</text><text class="element element-O" x="85.28203230275508" y="46.0">O</text><text class="element element-N" x="67.9615242270663" y="36.0">N</text><text class="element element-O" x="67.9615242270663" y="16.0">O</text><text class="element element-O" x="50.641016151377535" y="46.0">O</text><text class="element element-C" x="67.9615242270663" y="76.0">C</text><text class="element element-H" x="67.9615242270663" y="96.0">H</text><text class="element element-H" x="50.641016151377535" y="86.0">H</text><text class="element element-O" x="50.64101615137754" y="66.0">O</text><text class="element element-N" x="33.320508075688764" y="76.0">N</text><text class="element element-O" x="16.0" y="66.0">O</text><text class="element element-O" x="33.320508075688764" y="96.0">O</text><text class="element element-C" x="102.60254037844386" y="76.0">C</text><text class="element element-H" x="120.72869611917686" y="84.45236523481398">H</text><text class="element element-H" x="102.60254037844386" y="96.0">H</text><text class="element element-O" x="119.92304845413263" y="65.99999999999999">O</text><text class="element element-N" x="137.2435565298214" y="75.99999999999999">N</text><text class="element element-O" x="137.2435565298214" y="95.99999999999999">O</text><text class="element element-O" x="154.56406460551017" y="65.99999999999997">O</text><circle class="ci-eletron" cx="85.28203230275508" cy="73.0" r="0.5" /><circle class="ci-eletron" cx="85.28203230275508" cy="79.0" r="0.5" /><circle class="ci-eletron" cx="85.28203230275508" cy="59.0" r="0.5" /><circle class="ci-eletron" cx="85.28203230275508" cy="53.0" r="0.5" /><circle class="ci-eletron" cx="79.21985447626402" cy="69.5" r="0.5" /><circle class="ci-eletron" cx="74.02370205355737" cy="72.5" r="0.5" /><circle class="ci-eletron" cx="91.34421012924615" cy="69.5" r="0.5" /><circle class="ci-eletron" cx="96.5403625519528" cy="72.5" r="0.5" /><circle class="ci-eletron" cx="79.21985447626402" cy="42.5" r="0.5" /><circle class="ci-eletron" cx="74.02370205355737" cy="39.49999999999999" r="0.5" /><circle class="ci-eletron" cx="67.9615242270663" cy="29.0" r="0.5" /><circle class="ci-eletron" cx="67.9615242270663" cy="23.0" r="0.5" /><circle class="ci-eletron" cx="61.89934640057523" cy="39.5" r="0.5" /><circle class="ci-eletron" cx="56.7031939778686" cy="42.5" r="0.5" /><circle class="ci-eletron" cx="67.9615242270663" cy="83.0" r="0.5" /><circle class="ci-eletron" cx="67.9615242270663" cy="89.0" r="0.5" /><circle class="ci-eletron" cx="61.89934640057523" cy="79.5" r="0.5" /><circle class="ci-eletron" cx="56.7031939778686" cy="82.5" r="0.5" /><circle class="ci-eletron" cx="61.89934640057523" cy="72.5" r="0.5" /><circle class="ci-eletron" cx="56.703193977868615" cy="69.5" r="0.5" /><circle class="ci-eletron" cx="44.57883832488647" cy="69.5" r="0.5" /><circle class="ci-eletron" cx="39.38268590217983" cy="72.5" r="0.5" /><circle class="ci-eletron" cx="27.258330249197694" cy="72.5" r="0.5" /><circle class="ci-eletron" cx="22.062177826491073" cy="69.5" r="0.5" /><circle class="ci-eletron" cx="33.320508075688764" cy="83.0" r="0.5" /><circle class="ci-eletron" cx="33.320508075688764" cy="89.0" r="0.5" /><circle class="ci-eletron" cx="108.94669488770042" cy="78.95832783218489" r="0.5" /><circle class="ci-eletron" cx="114.3845416099203" cy="81.49403740262909" r="0.5" /><circle class="ci-eletron" cx="102.60254037844386" cy="83.0" r="0.5" /><circle class="ci-eletron" cx="102.60254037844386" cy="89.0" r="0.5" /><circle class="ci-eletron" cx="108.66471820493493" cy="72.5" r="0.5" /><circle class="ci-eletron" cx="113.86087062764156" cy="69.49999999999999" r="0.5" /><circle class="ci-eletron" cx="125.98522628062369" cy="69.49999999999999" r="0.5" /><circle class="ci-eletron" cx="131.18137870333032" cy="72.49999999999999" r="0.5" /><circle class="ci-eletron" cx="137.2435565298214" cy="82.99999999999999" r="0.5" /><circle class="ci-eletron" cx="137.2435565298214" cy="88.99999999999999" r="0.5" /><circle class="ci-eletron" cx="143.30573435631248" cy="72.49999999999999" r="0.5" /><circle class="ci-eletron" cx="148.5018867790191" cy="69.49999999999997" r="0.5" /></svg>