<svg width="212.13328398716322" height="136.0" xmlns="http://www.w3.org/2000/svg"><style>.element {font-family: 'Courier New', Courier, monospace;font-size: 10px;fill: black;font-weight: bold;dominant-baseline: middle;text-anchor: middle;}.ligation {stroke-width: 1px;stroke: black;}.element-H {fill: #bbbbbb;}.element-S {fill: #f7cd29;}.element-Cl {fill: #21d122;}.element-F {fill: #aed482;}.element-N {fill: #7878fa;}.element-O {fill: #eb3738;}.element-C {fill: #000000;}</style><text class="element element-C" x="106.06664199358161" y="81.0">C</text><text class="element element-H" x="106.06664199358161" y="107.0">H</text><text class="element element-O" x="106.06664199358161" y="55.0">O</text><text class="element element-N" x="83.5499814951862" y="42.0">N</text><text class="element element-O" x="83.5499814951862" y="16.0">O</text><text class="element element-O" x="61.0333209967908" y="55.0">O</text><text class="element element-C" x="83.5499814951862" y="94.0">C</text><text class="element element-H" x="83.5499814951862" y="120.0">H</text><text class="element element-H" x="61.0333209967908" y="107.0">H</text><text class="element element-O" x="61.033320996790806" y="81.0">O</text><text class="element element-N" x="38.516660498395396" y="94.0">N</text><text class="element element-O" x="16.0" y="80.99999999999999">O</text><text class="element element-O" x="38.516660498395396" y="120.0">O</text><text class="element element-C" x="128.583302491977" y="94.0">C</text><text class="element element-H" x="152.14730495492992" y="104.98807480525818">H</text><text class="element element-H" x="128.583302491977" y="120.0">H</text><text class="element element-O" x="151.09996299037243" y="80.99999999999999">O</text><text class="element element-N" x="173.61662348876783" y="93.99999999999999">N</text><text class="element element-O" x="173.61662348876783" y="119.99999999999999">O</text><text class="element element-O" x="196.13328398716322" y="80.99999999999997">O</text><circle class="ci-eletron" cx="106.06664199358161" cy="88.0" r="0.5" /><circle class="ci-eletron" cx="106.06664199358161" cy="100.0" r="0.5" /><circle class="ci-eletron" cx="106.06664199358161" cy="74.0" r="0.5" /><circle class="ci-eletron" cx="106.06664199358161" cy="62.0" r="0.5" /><circle class="ci-eletron" cx="100.00446416709055" cy="84.5" r="0.5" /><circle class="ci-eletron" cx="89.61215932167727" cy="90.5" r="0.5" /><circle class="ci-eletron" cx="112.12881982007268" cy="84.5" r="0.5" /><circle class="ci-eletron" cx="122.52112466548594" cy="90.5" r="0.5" /><circle class="ci-eletron" cx="100.00446416709055" cy="51.5" r="0.5" /><circle class="ci-eletron" cx="89.61215932167727" cy="45.49999999999999" r="0.5" /><circle class="ci-eletron" cx="83.5499814951862" cy="35.0" r="0.5" /><circle class="ci-eletron" cx="83.5499814951862" cy="23.0" r="0.5" /><circle class="ci-eletron" cx="77.48780366869514" cy="45.5" r="0.5" /><circle class="ci-eletron" cx="67.09549882328187" cy="51.5" r="0.5" /><circle class="ci-eletron" cx="83.5499814951862" cy="101.0" r="0.5" /><circle class="ci-eletron" cx="83.5499814951862" cy="113.0" r="0.5" /><circle class="ci-eletron" cx="77.48780366869514" cy="97.5" r="0.5" /><circle class="ci-eletron" cx="67.09549882328187" cy="103.5" r="0.5" /><circle class="ci-eletron" cx="77.48780366869514" cy="90.5" r="0.5" /><circle class="ci-eletron" cx="67.09549882328187" cy="84.5" r="0.5" /><circle class="ci-eletron" cx="54.97114317029973" cy="84.5" r="0.5" /><circle class="ci-eletron" cx="44.57883832488646" cy="90.5" r="0.5" /><circle class="ci-eletron" cx="32.45448267190432" cy="90.5" r="0.5" /><circle class="ci-eletron" cx="22.062177826491073" cy="84.49999999999999" r="0.5" /><circle class="ci-eletron" cx="38.516660498395396" cy="101.0" r="0.5" /><circle class="ci-eletron" cx="38.516660498395396" cy="113.0" r="0.5" /><circle class="ci-eletron" cx="134.92745700123356" cy="96.95832783218489" r="0.5" /><circle class="ci-eletron" cx="145.80315044567337" cy="102.02974697307329" r="0.5" /><circle class="ci-eletron" cx="128.583302491977" cy="101.0" r="0.5" /><circle class="ci-eletron" cx="128.583302491977" cy="113.0" r="0.5" /><circle class="ci-eletron" cx="134.6454803184681" cy="90.5" r="0.5" /><circle class="ci-eletron" cx="145.03778516388135" cy="84.49999999999999" r="0.5" /><circle class="ci-eletron" cx="157.1621408168635" cy="84.49999999999999" r="0.5" /><circle class="ci-eletron" cx="167.55444566227675" cy="90.49999999999999" r="0.5" /><circle class="ci-eletron" cx="173.61662348876783" cy="100.99999999999999" r="0.5" /><circle class="ci-eletron" cx="173.61662348876783" cy="112.99999999999999" r="0.5" /><circle class="ci-eletron" cx="179.6788013152589" cy="90.49999999999999" r="0.5" /><circle class="ci-eletron" cx="190.07110616067214" cy="84.49999999999997" r="0.5" /></svg>