<svg width="170.56406460551017" height="112.0" xmlns="http://www.w3.org/2000/svg"><style>.element {font-family: 'Courier New', Courier, monospace;font-size: 10px;fill: black;font-weight: bold;dominant-baseline: middle;text-anchor: middle;}.ligation {stroke-width: 1px;stroke: black;}.element-H {fill: #bbbbbb;}.element-S {fill: #f7cd29;}.element-Cl {fill: #21d122;}.element-F {fill: #aed482;}.element-N {fill: #7878fa;}.element-O {fill: #eb3738;}.element-C {fill: #000000;}</style><text class="element element-O" x="85.28203230275508" y="46.0">O</text><text class="element element-N" x="67.9615242270663" y="36.0">N</text><text class="element element-O" x="67.9615242270663" y="16.0">O</text><text class="element element-O" x="50.641016151377535" y="46.0">O</text><text class="element element-O" x="50.64101615137754" y="66.0">O</text><text class="element element-N" x="33.320508075688764" y="76.0">N</text><text class="element element-O" x="16.0" y="66.0">O</text><text class="element element-O" x="33.320508075688764" y="96.0">O</text><text class="element element-O" x="119.92304845413263" y="65.99999999999999">O</text><text class="element element-N" x="137.2435565298214" y="75.99999999999999">N</text><text class="element element-O" x="137.2435565298214" y="95.99999999999999">O</text><text class="element element-O" x="154.56406460551017" y="65.99999999999997">O</text><line class="ligation" x1="85.28203230275508" y1="66.0" x2="85.28203230275508" y2="53.0" /><line class="ligation" x1="85.28203230275508" y1="66.0" x2="67.9615242270663" y2="76.0" /><line class="ligation" x1="85.28203230275508" y1="66.0" x2="102.60254037844386" y2="76.0" /><line class="ligation" x1="79.21985447626402" y1="42.5" x2="74.02370205355737" y2="39.49999999999999" /><line class="ligation" x1="67.9615242270663" y1="29.0" x2="67.9615242270663" y2="23.0" /><line class="ligation" x1="61.89934640057523" y1="39.5" x2="56.7031939778686" y2="42.5" /><line class="ligation" x1="67.9615242270663" y1="76.0" x2="56.703193977868615" y2="69.5" /><line class="ligation" x1="44.57883832488647" y1="69.5" x2="39.38268590217983" y2="72.5" /><line class="ligation" x1="27.258330249197694" y1="72.5" x2="22.062177826491073" y2="69.5" /><line class="ligation" x1="33.320508075688764" y1="83.0" x2="33.320508075688764" y2="89.0" /><line class="ligation" x1="102.60254037844386" y1="76.0" x2="113.86087062764156" y2="69.49999999999999" /><line class="ligation" x1="125.98522628062369" y1="69.49999999999999" x2="131.18137870333032" y2="72.49999999999999" /><line class="ligation" x1="137.2435565298214" y1="82.99999999999999" x2="137.2435565298214" y2="88.99999999999999" /><line class="ligation" x1="143.30573435631248" y1="72.49999999999999" x2="148.5018867790191" y2="69.49999999999997" /></svg>