<svg width="316.3452258668291" height="163.75457924235536" xmlns="http://www.w3.org/2000/svg"><style>.element {font-family: 'Courier New', Courier, monospace;font-size: 10px;fill: black;font-weight: bold;dominant-baseline: middle;text-anchor: middle;}.ligation {stroke-width: 1px;stroke: black;}.element-H {fill: #bbbbbb;}.element-S {fill: #f7cd29;}.element-Cl {fill: #21d122;}.element-F {fill: #aed482;}.element-N {fill: #7878fa;}.element-O {fill: #eb3738;}.element-C {fill: #000000;}</style><text class="element element-O" x="66.28957742000871" y="44.3227416232764">O</text><text class="element element-O" x="29.856855420462807" y="65.35718347702503">O</text><text class="element element-O" x="206.7952443716429" y="147.7545792423553">O</text><text class="element element-N" x="229.3119048700383" y="108.7545792423553">N</text><line class="ligation" x1="71.19528138127046" y1="70.62060464613978" x2="93.71194187966587" y2="83.62060464613978"/><line class="ligation" x1="72.19528138127046" y1="68.88855383857091" x2="94.71194187966587" y2="81.88855383857091"/><line class="ligation" x1="94.21194187966587" y1="82.75457924235535" x2="94.21194187966587" y2="108.75457924235535"/><line class="ligation" x1="93.71194187966587" y1="107.88855383857091" x2="71.19528138127046" y2="120.88855383857091"/><line class="ligation" x1="94.71194187966587" y1="109.62060464613978" x2="72.19528138127046" y2="122.62060464613978"/><line class="ligation" x1="71.69528138127046" y1="121.75457924235535" x2="49.17862088287506" y2="108.75457924235535"/><line class="ligation" x1="50.17862088287506" y1="108.75457924235535" x2="50.17862088287505" y2="82.75457924235535"/><line class="ligation" x1="48.17862088287506" y1="108.75457924235535" x2="48.17862088287505" y2="82.75457924235535"/><line class="ligation" x1="71.69528138127046" y1="69.75457924235535" x2="49.17862088287505" y2="82.75457924235535"/><line class="ligation" x1="71.69528138127046" y1="69.75457924235535" x2="67.74495925573302" y2="51.16977482841304"/><line class="ligation" x1="94.21194187966587" y1="108.75457924235535" x2="116.72860237806128" y2="121.75457924235535"/><line class="ligation" x1="49.17862088287505" y1="82.75457924235535" x2="35.058869198804565" y2="70.04109772153704"/><line class="ligation" x1="59.327924152430796" y1="43.591042380402826" x2="40.432008140433624" y2="41.60500157831741"/><line class="ligation" x1="32.70401192199341" y1="58.96236527352683" x2="40.432008140433624" y2="41.60500157831741"/><line class="ligation" x1="117.22860237806128" y1="122.62060464613978" x2="139.74526287645668" y2="109.62060464613977"/><line class="ligation" x1="116.22860237806128" y1="120.88855383857091" x2="138.74526287645668" y2="107.8885538385709"/><line class="ligation" x1="139.24526287645668" y1="108.75457924235533" x2="161.76192337485207" y2="121.75457924235533"/><line class="ligation" x1="162.26192337485207" y1="122.62060464613977" x2="184.7785838732475" y2="109.62060464613975"/><line class="ligation" x1="161.26192337485207" y1="120.8885538385709" x2="183.7785838732475" y2="107.88855383857089"/><line class="ligation" x1="184.2785838732475" y1="108.75457924235532" x2="206.7952443716429" y2="121.75457924235532"/><line class="ligation" x1="205.7952443716429" y1="121.75457924235532" x2="205.70020311636128" y2="140.84076085818936"/><line class="ligation" x1="207.7952443716429" y1="121.75457924235532" x2="207.8902856269245" y2="140.84076085818936"/><line class="ligation" x1="206.7952443716429" y1="121.75457924235532" x2="223.2497270435472" y2="112.2545792423553"/><line class="ligation" x1="229.3119048700383" y1="101.7545792423553" x2="229.3119048700383" y2="82.7545792423553"/><line class="ligation" x1="229.3119048700383" y1="82.7545792423553" x2="251.8285653684337" y2="69.75457924235529"/><line class="ligation" x1="251.8285653684337" y1="69.75457924235529" x2="274.3452258668291" y2="82.75457924235529"/><line class="ligation" x1="274.3452258668291" y1="82.75457924235529" x2="274.3452258668291" y2="108.75457924235529"/><line class="ligation" x1="274.3452258668291" y1="108.75457924235529" x2="251.8285653684337" y2="121.75457924235529"/><line class="ligation" x1="235.37408269652937" y1="112.2545792423553" x2="251.8285653684337" y2="121.75457924235529"/></svg>